<svg version="1.1" id="Layer_1" xmlns="http://www.w3.org/2000/svg" xmlns:xlink="http://www.w3.org/1999/xlink" x="0px" y="0px" width="100%" viewBox="0 0 146 145" enable-background="new 0 0 146 145" xml:space="preserve">
	<path fill="#ffffff" opacity="1.000000" stroke="none" d="
M79.000000,1.000000 
	C101.649384,1.000000 124.298767,1.000000 146.974075,1.000000 
	C146.974075,49.279190 146.974075,97.558395 146.974075,145.918793 
	C98.424698,145.918793 49.849209,145.918793 1.136862,145.918793 
	C1.136862,97.666908 1.136862,49.333515 1.136862,1.000000 
	C24.097786,1.000000 47.080235,1.000000 70.725906,1.398617 
	C69.542809,2.192199 67.641289,2.421409 65.860870,3.014289 
	C61.171478,4.575852 56.534714,6.295440 51.515522,7.981810 
	C47.433701,10.064813 43.713348,12.118100 39.731239,14.152384 
	C39.282654,14.416993 39.095825,14.700607 38.942863,14.983552 
	C38.976727,14.982882 38.968220,14.915672 38.643620,14.964029 
	C37.516300,15.658500 36.713577,16.304613 35.941910,16.959597 
	C35.972965,16.968466 35.954391,16.906605 35.602097,16.961100 
	C33.470463,18.664686 31.691116,20.313778 29.621712,22.082607 
	C28.208479,23.422329 27.085306,24.642313 25.701900,25.964302 
	C25.262508,26.380768 25.083349,26.695227 24.958179,27.002354 
	C25.012167,26.995020 24.997547,26.887039 24.726748,26.970188 
	C24.273718,27.369535 24.091488,27.685732 23.939297,27.985754 
	C23.969334,27.969578 23.931572,27.912746 23.611725,28.044937 
	C21.499004,31.103327 19.706129,34.029526 17.951607,36.960480 
	C17.989958,36.965237 17.999250,36.888508 17.730213,36.975079 
	C17.274714,37.375824 17.088253,37.690002 16.934389,37.991714 
	C16.966988,37.979252 16.939669,37.915020 16.656078,38.039017 
	C16.217525,38.750610 16.062561,39.338200 15.667780,40.017418 
	C15.341799,40.412273 15.255634,40.715511 15.099060,41.231804 
	C15.028652,41.444859 14.966776,41.889355 14.647005,42.079956 
	C13.608489,44.841610 12.889744,47.412663 12.098347,50.224602 
	C11.987850,50.628895 11.950006,50.792301 11.600136,51.107544 
	C10.815761,52.601089 10.343413,53.942799 9.871066,55.284508 
	C10.131084,55.499889 10.391103,55.715267 10.651121,55.930649 
	C12.134513,54.635265 13.617905,53.339882 15.371445,51.935638 
	C16.122065,51.236141 16.602535,50.645512 17.403076,49.907898 
	C22.145695,47.119862 26.568245,44.478809 31.280846,41.903767 
	C32.205162,41.588238 32.839428,41.206703 33.599930,40.786934 
	C33.726166,40.748703 33.816147,40.500725 34.145100,40.313629 
	C41.337151,38.450779 48.200253,36.775024 55.525589,35.063713 
	C61.641960,35.387714 67.296089,35.747276 72.742470,36.447556 
	C65.341187,38.486412 58.147655,40.184555 50.572273,41.924076 
	C45.448513,44.279453 40.706596,46.593456 35.652008,48.945511 
	C34.872238,49.309772 34.405140,49.635979 33.966820,49.973515 
	C33.995594,49.984840 33.994469,49.923000 33.732780,50.004913 
	C33.287075,50.390728 33.103058,50.694630 32.954460,50.995617 
	C32.989880,50.992702 32.983967,50.921871 32.658310,50.965939 
	C31.542809,51.669834 30.752964,52.329662 29.984653,52.997192 
	C30.006189,53.004902 29.988256,52.962814 29.517086,53.255562 
	C28.508188,54.062691 27.970463,54.577068 27.417286,54.318817 
	C27.622089,53.080456 27.842346,52.614727 28.351799,51.951653 
	C29.370129,50.701355 30.099268,49.648399 31.463682,47.678036 
	C28.625208,48.325684 26.841122,48.732754 24.733978,49.186028 
	C22.923416,50.438766 21.435909,51.645302 19.716175,52.964066 
	C19.293015,53.353603 19.102079,53.630913 18.568569,53.960968 
	C15.835658,56.685036 13.445321,59.356361 11.029850,62.014473 
	C11.004718,62.001259 11.022270,62.055271 10.687034,62.154087 
	C8.679216,65.232094 6.823559,68.128273 5.417808,71.228462 
	C4.793987,72.604218 5.079026,74.392082 4.970701,76.330856 
	C5.046663,77.115089 5.103436,77.561340 5.074499,78.423630 
	C1.534516,88.812912 5.264571,100.875069 14.114868,108.311249 
	C19.155962,110.755302 24.083275,112.871521 29.005257,114.993866 
	C28.999924,115.000000 29.012224,114.989471 29.072273,115.210503 
	C29.440815,115.301788 29.749308,115.172043 30.471069,115.029694 
	C39.909615,115.621857 48.934887,116.226624 58.403313,116.905197 
	C67.595016,115.331978 76.343575,113.684952 85.414597,111.867615 
	C87.812134,111.075333 89.887215,110.453384 92.364548,109.892502 
	C95.132133,109.321083 97.465256,108.453262 99.872063,108.123894 
	C102.171516,107.809219 104.547676,108.054970 106.756920,108.378311 
	C104.083282,110.184662 101.542839,111.667084 98.743637,113.137482 
	C98.299522,113.402229 98.114174,113.678986 97.961121,113.973412 
	C97.993416,113.991081 97.946625,113.934174 97.575897,113.969391 
	C88.755669,117.643707 80.306160,121.282791 71.525826,125.097809 
	C67.133148,125.570251 63.071297,125.866783 58.598221,126.094803 
	C56.798786,125.987053 55.410580,125.947815 53.813072,125.636261 
	C52.353916,125.556190 51.104065,125.748444 49.424965,125.959442 
	C45.519535,125.978203 42.043346,125.978203 37.987942,125.978203 
	C40.022507,127.625938 41.507153,128.828308 43.171066,130.329376 
	C46.449947,132.157318 49.413296,134.147110 52.679440,135.113449 
	C58.302753,136.777206 63.694122,140.341080 70.479698,138.056534 
	C79.999329,138.054733 89.103554,138.547852 97.756081,135.004852 
	C102.827133,132.928375 107.903343,130.864517 113.310684,128.744598 
	C115.381859,127.477135 117.351440,126.487228 118.811020,124.997604 
	C122.282173,121.455025 125.512039,117.676018 128.986603,113.678940 
	C132.449112,107.737206 136.296280,102.348824 138.964584,96.429062 
	C143.907043,85.463905 145.400330,73.863190 143.087646,61.554058 
	C142.105255,60.928070 140.884705,60.148602 140.306656,60.482269 
	C134.446472,63.864895 128.691208,67.429253 122.602081,71.103027 
	C119.233467,72.944496 116.169296,74.625595 112.742043,76.220169 
	C107.252846,78.480133 102.126740,80.826622 96.755325,83.166191 
	C96.196411,83.317665 95.997879,83.567528 95.542534,83.971260 
	C90.407356,86.000465 85.644066,87.967255 80.535210,89.967194 
	C79.127403,90.386604 78.065163,90.772865 76.582207,91.098007 
	C71.450081,92.113365 66.738670,93.189850 61.652351,94.207291 
	C60.522030,94.190544 59.766624,94.232834 58.748863,94.216324 
	C58.309677,94.187462 58.132851,94.217400 57.501831,94.181206 
	C53.358765,94.168762 49.669891,94.222450 45.647324,94.199768 
	C44.863331,94.176010 44.413044,94.228630 43.604713,94.215683 
	C42.521481,94.088654 41.796288,94.027184 40.919998,93.695038 
	C40.176495,93.340012 39.584091,93.255661 38.602554,93.101265 
	C34.511681,91.998695 30.809938,90.966164 27.042458,89.586990 
	C23.654537,86.486191 20.332357,83.732033 16.950310,80.751694 
	C16.890446,80.525497 16.756554,80.077095 16.838001,79.700218 
	C16.886486,75.885986 16.853519,72.448639 16.909575,68.646286 
	C17.322601,67.366211 17.460770,66.318657 18.002493,65.558800 
	C20.470701,62.096691 20.785994,56.687447 26.126333,56.422691 
	C25.595242,58.517536 25.382010,60.256340 25.098436,62.423603 
	C24.993307,69.092438 28.777061,75.106377 33.800888,76.864861 
	C44.905209,80.751694 56.316296,81.952736 68.441574,80.890335 
	C83.183098,80.555573 96.198105,75.436531 109.330124,69.968094 
	C109.532112,69.931015 109.921074,69.799057 110.192245,69.833305 
	C110.653305,69.577156 110.843178,69.286751 111.263458,68.947250 
	C111.493851,68.898163 111.944389,68.760376 112.304817,68.838501 
	C115.134209,67.607620 117.603165,66.298630 120.300888,64.941460 
	C120.529640,64.893280 120.977936,64.760475 121.236771,64.802719 
	C121.676842,64.562500 121.858070,64.280045 122.264252,63.955990 
	C122.489204,63.914394 122.924599,63.773796 123.293365,63.845634 
	C129.136063,60.973389 134.609985,58.029305 140.483093,55.020279 
	C141.203552,52.965328 141.524811,50.975315 141.813690,48.648777 
	C140.852325,46.836224 139.923340,45.360199 138.967041,43.683712 
	C138.939713,43.483250 138.808655,43.100426 138.888306,42.731026 
	C136.657974,38.879719 134.348022,35.397808 132.033386,31.948433 
	C132.028717,31.980968 132.094345,31.977077 132.053284,31.647118 
	C131.358215,30.514097 130.704178,29.711039 130.044647,28.939739 
	C130.039169,28.971502 130.102112,28.957624 130.063934,28.606804 
	C123.389008,19.621513 115.022514,13.223849 105.019302,8.957073 
	C105.007553,8.986628 105.063110,8.955651 104.938919,8.670318 
	C104.224564,8.223741 103.634415,8.062498 102.853180,7.588735 
	C100.785385,6.819055 98.908669,6.361893 97.025482,5.935876 
	C97.019020,5.967020 97.080231,5.949720 96.890076,5.608210 
	C92.788391,4.567482 88.876854,3.868265 84.536636,3.101705 
	C82.405296,2.356241 80.702652,1.678121 79.000000,1.000000 
z"/>
	<path fill="#95B465" opacity="1.000000" stroke="none" d="
M78.555832,1.000000 
	C80.702652,1.678121 82.405296,2.356241 84.379066,3.249627 
	C84.435638,3.657800 84.210770,3.837828 83.510406,4.006679 
	C76.697868,4.678060 70.350502,5.347740 63.601974,6.013389 
	C62.130993,6.004769 61.061176,6.000179 59.745239,5.994304 
	C59.499119,5.993019 59.006882,5.997146 58.685226,6.069783 
	C56.201378,6.745644 54.039185,7.348869 51.876991,7.952094 
	C56.534714,6.295440 61.171478,4.575852 65.860870,3.014289 
	C67.641289,2.421409 69.542809,2.192199 71.194565,1.398617 
	C73.370560,1.000000 75.741112,1.000000 78.555832,1.000000 
z"/>
	<path fill="#89C656" opacity="1.000000" stroke="none" d="
M59.991364,5.995589 
	C61.061176,6.000179 62.130993,6.004769 63.873291,6.141649 
	C69.169640,6.411618 74.204674,5.445334 78.310272,6.974483 
	C83.129189,8.769307 86.898788,8.290900 91.407578,6.004658 
	C93.589188,5.986713 95.334709,5.968217 97.080231,5.949720 
	C97.080231,5.949720 97.019020,5.967020 97.175018,6.243134 
	C99.221306,7.350512 101.111603,8.181776 103.345581,9.012876 
	C104.147217,8.993691 104.605164,8.974671 105.063110,8.955651 
	C105.063110,8.955651 105.007553,8.986628 105.113083,9.289556 
	C110.200897,13.484958 115.178780,17.383095 120.167038,21.267910 
	C123.471031,23.841030 126.789902,26.395050 130.102112,28.957624 
	C130.102112,28.957624 130.039169,28.971502 130.078644,29.271328 
	C130.776855,30.373129 131.435593,31.175102 132.094345,31.977077 
	C132.094345,31.977077 132.028717,31.980968 132.065857,32.323380 
	C133.386368,36.755699 134.401749,41.017818 138.808655,43.100426 
	C138.808655,43.100426 138.939713,43.483250 138.970779,44.063835 
	C139.346924,46.099106 139.692001,47.553799 140.031662,49.257427 
	C140.026245,49.506363 140.011734,50.004147 139.753906,50.226742 
	C137.332062,52.635525 135.168060,54.821712 132.741821,57.233879 
	C129.294601,59.564503 126.109604,61.669151 122.924599,63.773796 
	C122.924599,63.773796 122.489204,63.914394 122.063614,64.047470 
	C121.388702,64.340523 121.168678,64.533829 120.977936,64.760475 
	C120.977936,64.760475 120.529640,64.893280 119.913696,64.947662 
	C116.846634,66.254814 114.395508,67.507599 111.944389,68.760376 
	C111.944389,68.760376 111.493851,68.898163 111.055069,69.046005 
	C110.356842,69.363762 110.125107,69.565498 109.921074,69.799057 
	C109.921074,69.799057 109.532112,69.931015 108.908264,69.963928 
	C94.855988,73.606346 81.427574,77.215851 67.999153,80.825356 
	C56.316296,81.952736 44.905209,80.751694 33.800888,76.864861 
	C28.777061,75.106377 24.993307,69.092438 25.277845,62.142914 
	C27.014484,58.610115 28.501371,55.786465 29.988258,52.962814 
	C29.988256,52.962814 30.006189,53.004902 30.315317,52.966507 
	C31.410952,52.259361 32.197460,51.590618 32.983967,50.921871 
	C32.983967,50.921871 32.989880,50.992702 33.166943,50.851368 
	C33.560825,50.447689 33.777649,50.185345 33.994469,49.923000 
	C33.994469,49.923000 33.995594,49.984840 34.309547,49.991028 
	C35.080338,49.993050 35.537170,49.988884 36.267696,50.047447 
	C41.358334,47.739639 46.175278,45.369102 51.406555,42.994843 
	C58.106113,41.820999 64.411064,40.743076 70.660683,39.406498 
	C71.982712,39.123760 73.102425,37.895042 74.315353,37.102188 
	C73.860306,36.770401 73.405266,36.438622 72.950218,36.106842 
	C67.296089,35.747276 61.641960,35.387714 55.206753,34.890324 
	C48.333134,35.603271 42.218933,36.334450 36.170715,37.429939 
	C35.231281,37.600094 34.593449,39.435425 33.816147,40.500725 
	C33.816147,40.500725 33.726166,40.748703 33.309807,40.734791 
	C32.259232,41.093170 31.625013,41.465462 30.990795,41.837753 
	C26.568245,44.478809 22.145695,47.119862 17.124527,49.781139 
	C15.998957,49.201527 15.472008,48.601692 14.954445,47.991005 
	C14.963830,47.980152 14.982253,47.958149 15.100204,47.778790 
	C15.148684,47.065659 15.079214,46.531887 15.018639,45.669292 
	C15.037267,44.901985 15.046999,44.463497 15.282433,43.851994 
	C15.992417,43.099464 16.476702,42.519955 16.974415,41.707726 
	C16.987844,41.475010 17.011278,41.007866 17.216610,40.916382 
	C17.312588,40.200436 17.203234,39.575977 17.059925,38.691704 
	C16.997204,38.259605 16.968437,38.087311 16.939669,37.915020 
	C16.939669,37.915020 16.966988,37.979252 17.140829,37.829868 
	C17.542864,37.416492 17.771057,37.152500 17.999252,36.888508 
	C17.999250,36.888508 17.989958,36.965237 18.291004,36.876167 
	C22.297518,34.987591 23.925879,31.938334 23.931572,27.912746 
	C23.931572,27.912746 23.969334,27.969578 24.138893,27.818253 
	C24.538151,27.406965 24.767849,27.147003 24.997547,26.887039 
	C24.997547,26.887039 25.012167,26.995020 25.150255,26.826366 
	C25.512939,26.392574 25.737537,26.127436 25.962135,25.862297 
	C27.085306,24.642313 28.208479,23.422329 29.975010,22.038521 
	C32.397045,20.218666 34.175720,18.562635 35.954391,16.906605 
	C35.954391,16.906605 35.972965,16.968466 36.271561,16.920715 
	C37.369507,16.220533 38.168865,15.568103 38.968220,14.915672 
	C38.968220,14.915672 38.976727,14.982882 39.134865,14.862968 
	C39.540104,14.569356 39.773434,14.378800 39.992996,14.171389 
	C43.713348,12.118100 47.433701,10.064813 51.515522,7.981810 
	C54.039185,7.348869 56.201378,6.745644 58.802589,6.130642 
	C59.241611,6.118864 59.628849,6.144594 59.628849,6.144594 
	C59.628849,6.144594 59.991364,5.995589 59.991364,5.995589 
z"/>
	<path fill="#167ABE" opacity="1.000000" stroke="none" d="
M59.009449,126.163300 
	C63.071297,125.866783 67.133148,125.570251 71.853897,125.182495 
	C82.146751,124.007492 90.851837,120.806267 97.946625,113.934174 
	C97.946625,113.934174 97.993416,113.991081 98.160713,113.868752 
	C98.569107,113.565865 98.793900,113.366882 99.002396,113.149490 
	C101.542839,111.667084 104.083282,110.184662 107.019440,108.201866 
	C107.854660,106.310104 108.404266,104.934837 108.612885,103.509659 
	C108.643547,103.300133 106.808296,102.334686 106.255531,102.598221 
	C101.436874,104.895508 96.713776,107.393234 91.962296,109.831436 
	C89.887215,110.453384 87.812134,111.075333 84.971733,111.846893 
	C76.232597,113.045784 68.252975,114.054832 60.293533,115.203720 
	C59.454903,115.324776 58.735096,116.269051 57.960159,116.831390 
	C48.934887,116.226624 39.909615,115.621857 30.210833,114.994644 
	C29.362293,114.977959 29.187260,114.983711 29.012224,114.989471 
	C29.012224,114.989471 28.999924,115.000000 28.854874,114.685898 
	C23.806911,112.242332 18.903999,110.112869 14.001089,107.983406 
	C5.264571,100.875069 1.534516,88.812912 5.392341,78.296783 
	C7.184558,74.161736 8.573224,70.569572 10.045659,66.625687 
	C10.427043,64.867737 10.724657,63.461506 11.022270,62.055271 
	C11.022270,62.055271 11.004718,62.001259 11.356619,62.060108 
	C12.148043,62.104263 12.587565,62.089565 13.151266,62.111473 
	C13.556028,62.160618 13.777481,62.048943 14.054110,61.575302 
	C14.437380,60.883991 14.706343,60.430428 15.225131,60.156418 
	C16.032290,60.940071 16.589621,61.544159 16.965569,62.454678 
	C16.243780,64.829559 15.703379,66.898010 14.983913,69.335114 
	C14.068799,73.422432 12.238579,77.346962 16.756554,80.077095 
	C16.756554,80.077095 16.890446,80.525497 16.971756,81.109634 
	C20.404778,84.440399 23.756487,87.187019 27.108196,89.933640 
	C30.809938,90.966164 34.511681,91.998695 38.834770,93.262436 
	C39.994446,93.651009 40.532768,93.808365 41.071095,93.965721 
	C41.796288,94.027184 42.521481,94.088654 43.594082,94.432480 
	C43.941490,94.714836 43.969624,95.148041 44.195869,95.448166 
	C49.034149,97.481178 53.605888,98.330475 58.181633,95.009140 
	C58.623989,94.726067 58.837608,94.521477 59.011223,94.275131 
	C59.766624,94.232834 60.522030,94.190544 61.981003,94.351120 
	C67.097610,94.019989 71.510643,93.485992 76.314796,92.959976 
	C78.470490,92.063301 80.235069,91.158646 82.398163,90.220924 
	C83.860863,90.119415 84.925049,90.050964 86.289345,90.156036 
	C89.063156,91.342278 90.603905,90.687416 91.221451,87.723541 
	C92.328262,87.355316 93.160561,87.155251 94.179039,87.262054 
	C96.385262,88.120766 98.405319,88.672607 100.432564,89.226410 
	C100.673691,86.879234 100.823540,85.420624 101.233398,83.742218 
	C105.363983,81.117180 109.234558,78.711937 113.105133,76.306694 
	C116.169296,74.625595 119.233467,72.944496 122.984848,71.097427 
	C126.775009,69.507996 129.881897,68.093079 132.979828,66.658791 
	C136.373444,65.087608 139.758743,63.498520 143.147675,61.917233 
	C145.400330,73.863190 143.907043,85.463905 138.964584,96.429062 
	C136.296280,102.348824 132.449112,107.737206 128.667984,113.789558 
	C123.405716,118.318649 118.584724,122.395615 113.847076,126.567238 
	C113.315445,127.035347 113.255768,128.039429 112.977234,128.794968 
	C107.903343,130.864517 102.827133,132.928375 97.756081,135.004852 
	C89.103554,138.547852 79.999329,138.054733 70.169205,137.832550 
	C62.930550,135.748474 56.468327,133.851456 50.149509,131.641785 
	C53.198425,129.607178 56.103939,127.885239 59.009449,126.163300 
z"/>
	<path fill="#146488" opacity="1.000000" stroke="none" d="
M15.162977,68.966461 
	C15.703379,66.898010 16.243780,64.829559 17.211016,62.228916 
	C18.542814,59.142700 22.909010,57.645309 19.997278,53.660034 
	C19.973200,53.210861 19.960798,53.031349 19.948399,52.851837 
	C21.435909,51.645302 22.923416,50.438766 24.918804,49.426506 
	C26.305325,50.463520 27.183966,51.306255 28.062607,52.148994 
	C27.842346,52.614727 27.622089,53.080456 27.388683,54.396988 
	C27.065088,55.520741 26.754642,55.793694 26.444195,56.066643 
	C20.785994,56.687447 20.470701,62.096691 18.002493,65.558800 
	C17.460770,66.318657 17.322601,67.366211 16.632748,68.640663 
	C15.898927,68.988846 15.530951,68.977654 15.162977,68.966461 
z"/>
	<path fill="#83A65D" opacity="1.000000" stroke="none" d="
M68.441574,80.890335 
	C81.427574,77.215851 94.855988,73.606346 108.706268,70.001007 
	C96.198105,75.436531 83.183098,80.555573 68.441574,80.890335 
z"/>
	<path fill="#8DB463" opacity="1.000000" stroke="none" d="
M130.063934,28.606804 
	C126.789902,26.395050 123.471031,23.841030 120.167038,21.267910 
	C115.178780,17.383095 110.200897,13.484958 105.124832,9.260001 
	C115.022514,13.223849 123.389008,19.621513 130.063934,28.606804 
z"/>
	<path fill="#1A75B5" opacity="1.000000" stroke="none" d="
M58.598221,126.094795 
	C56.103939,127.885239 53.198425,129.607178 49.833012,131.526184 
	C47.246006,131.159058 45.118904,130.594864 42.991798,130.030670 
	C41.507153,128.828308 40.022507,127.625938 37.987942,125.978203 
	C42.043346,125.978203 45.519535,125.978203 49.843193,125.972031 
	C51.801235,125.946762 52.911804,125.927673 54.022373,125.908577 
	C55.410580,125.947815 56.798786,125.987053 58.598221,126.094795 
z"/>
	<path fill="#1E6799" opacity="1.000000" stroke="none" d="
M97.575897,113.969391 
	C90.851837,120.806267 82.146751,124.007492 72.184723,125.006577 
	C80.306160,121.282791 88.755669,117.643707 97.575897,113.969391 
z"/>
	<path fill="#89AD60" opacity="1.000000" stroke="none" d="
M72.742470,36.447556 
	C73.405266,36.438622 73.860306,36.770401 74.315353,37.102188 
	C73.102425,37.895042 71.982712,39.123760 70.660683,39.406498 
	C64.411064,40.743076 58.106113,41.820999 51.397568,42.715862 
	C50.967545,42.254635 50.960835,42.068668 50.954121,41.882702 
	C58.147655,40.184555 65.341187,38.486412 72.742470,36.447556 
z"/>
	<path fill="#196299" opacity="1.000000" stroke="none" d="
M92.364548,109.892494 
	C96.713776,107.393234 101.436874,104.895508 106.255531,102.598221 
	C106.808296,102.334686 108.643547,103.300133 108.612885,103.509659 
	C108.404266,104.934837 107.854660,106.310104 107.152634,107.877930 
	C104.547676,108.054970 102.171516,107.809219 99.872063,108.123894 
	C97.465256,108.453262 95.132133,109.321083 92.364548,109.892494 
z"/>
	<path fill="#165B91" opacity="1.000000" stroke="none" d="
M43.171070,130.329376 
	C45.118904,130.594864 47.246006,131.159058 49.689606,131.838837 
	C56.468327,133.851456 62.930550,135.748474 69.703262,137.869476 
	C63.694122,140.341080 58.302753,136.777206 52.679440,135.113449 
	C49.413296,134.147110 46.449947,132.157318 43.171070,130.329376 
z"/>
	<path fill="#88B75E" opacity="1.000000" stroke="none" d="
M34.145100,40.313629 
	C34.593449,39.435425 35.231281,37.600094 36.170715,37.429939 
	C42.218933,36.334450 48.333134,35.603271 54.744514,34.925880 
	C48.200253,36.775024 41.337151,38.450779 34.145100,40.313629 
z"/>
	<path fill="#1A6398" opacity="1.000000" stroke="none" d="
M58.403313,116.905197 
	C58.735096,116.269051 59.454903,115.324776 60.293533,115.203720 
	C68.252975,114.054832 76.232597,113.045784 84.649277,112.017212 
	C76.343575,113.684952 67.595016,115.331978 58.403313,116.905197 
z"/>
	<path fill="#1C6598" opacity="1.000000" stroke="none" d="
M113.310684,128.744598 
	C113.255768,128.039429 113.315445,127.035347 113.847076,126.567238 
	C118.584724,122.395615 123.405716,118.318649 128.520782,114.103165 
	C125.512039,117.676018 122.282173,121.455025 118.811020,124.997604 
	C117.351440,126.487228 115.381859,127.477135 113.310684,128.744598 
z"/>
	<path fill="#175E88" opacity="1.000000" stroke="none" d="
M143.087646,61.554058 
	C139.758743,63.498520 136.373444,65.087608 132.979828,66.658791 
	C129.881897,68.093079 126.775009,69.507996 123.289291,70.937057 
	C128.691208,67.429253 134.446472,63.864895 140.306656,60.482269 
	C140.884705,60.148602 142.105255,60.928070 143.087646,61.554058 
z"/>
	<path fill="#1B78B5" opacity="1.000000" stroke="none" d="
M57.992901,95.129372 
	C53.605888,98.330475 49.034149,97.481178 44.461617,95.368515 
	C44.994423,94.751213 45.487724,94.513680 45.981022,94.276146 
	C49.669891,94.222450 53.358765,94.168762 57.504501,94.401985 
	C57.961369,94.688904 57.992901,95.129372 57.992901,95.129372 
z"/>
	<path fill="#8FB16B" opacity="1.000000" stroke="none" d="
M50.572273,41.924076 
	C50.960835,42.068668 50.967545,42.254635 50.983238,42.719582 
	C46.175278,45.369102 41.358334,47.739639 36.264278,49.778290 
	C35.979675,49.266754 35.972176,49.087105 35.964680,48.907459 
	C40.706596,46.593456 45.448513,44.279453 50.572273,41.924076 
z"/>
	<path fill="#83A65D" opacity="1.000000" stroke="none" d="
M123.293365,63.845634 
	C126.109604,61.669151 129.294601,59.564503 133.083527,57.134781 
	C135.691559,56.104538 137.695694,55.399380 139.795837,54.791977 
	C139.891846,54.889729 140.083908,55.085213 140.083908,55.085217 
	C134.609985,58.029305 129.136063,60.973389 123.293365,63.845634 
z"/>
	<path fill="#1A6392" opacity="1.000000" stroke="none" d="
M14.114868,108.311249 
	C18.903999,110.112869 23.806911,112.242332 28.860207,114.679764 
	C24.083275,112.871521 19.155962,110.755302 14.114868,108.311249 
z"/>
	<path fill="#1E648D" opacity="1.000000" stroke="none" d="
M112.742043,76.220169 
	C109.234558,78.711937 105.363983,81.117180 100.836838,83.755241 
	C99.120995,84.033478 98.061737,84.078903 97.002007,83.886520 
	C97.001541,83.648712 97.000633,83.173111 97.000633,83.173111 
	C102.126740,80.826622 107.252846,78.480133 112.742043,76.220169 
z"/>
	<path fill="#17658F" opacity="1.000000" stroke="none" d="
M93.992867,86.955185 
	C93.160561,87.155251 92.328262,87.355316 90.877892,87.767181 
	C88.836296,88.646820 87.412766,89.314667 85.989235,89.982513 
	C84.925049,90.050964 83.860863,90.119415 82.119385,90.137291 
	C81.254990,90.035835 81.067886,89.984947 80.880783,89.934052 
	C85.644066,87.967255 90.407356,86.000465 95.654510,84.088562 
	C96.138374,84.143463 96.362419,84.377510 96.179581,84.604065 
	C95.328781,85.538811 94.660828,86.246994 93.992867,86.955185 
z"/>
	<path fill="#166899" opacity="1.000000" stroke="none" d="
M75.923683,92.951996 
	C71.510643,93.485992 67.097610,94.019989 62.355919,94.410164 
	C66.738670,93.189850 71.450081,92.113365 76.449738,91.323608 
	C76.466553,92.057549 76.195114,92.504776 75.923683,92.951996 
z"/>
	<path fill="#1B678E" opacity="1.000000" stroke="none" d="
M10.687035,62.154087 
	C10.724657,63.461506 10.427043,64.867737 9.817407,66.878181 
	C7.987428,70.319221 6.469471,73.156052 4.951513,75.992882 
	C5.079026,74.392082 4.793987,72.604218 5.417808,71.228462 
	C6.823559,68.128273 8.679216,65.232094 10.687035,62.154087 
z"/>
	<path fill="#156293" opacity="1.000000" stroke="none" d="
M27.042458,89.586990 
	C23.756487,87.187019 20.404778,84.440399 17.031622,81.335831 
	C20.332357,83.732033 23.654537,86.486191 27.042458,89.586990 
z"/>
	<path fill="#8DB463" opacity="1.000000" stroke="none" d="
M138.888306,42.731026 
	C134.401749,41.017818 133.386368,36.755699 132.070526,32.290848 
	C134.348022,35.397808 136.657974,38.879719 138.888306,42.731026 
z"/>
	<path fill="#1B678E" opacity="1.000000" stroke="none" d="
M13.027089,62.074867 
	C12.587565,62.089565 12.148043,62.104263 11.381751,62.073326 
	C13.445321,59.356361 15.835658,56.685036 18.674240,54.066902 
	C19.122486,54.120090 19.333729,54.330238 19.169575,54.610992 
	C17.662048,56.586781 16.318676,58.281818 14.975306,59.976860 
	C14.706343,60.430428 14.437380,60.883991 13.824120,61.634911 
	C13.479821,61.932259 13.027089,62.074867 13.027089,62.074867 
z"/>
	<path fill="#1B78B6" opacity="1.000000" stroke="none" d="
M4.970702,76.330856 
	C6.469471,73.156052 7.987428,70.319221 9.733637,67.229904 
	C8.573224,70.569572 7.184558,74.161736 5.478051,77.880753 
	C5.103436,77.561340 5.046663,77.115089 4.970702,76.330856 
z"/>
	<path fill="#156293" opacity="1.000000" stroke="none" d="
M14.983912,69.335114 
	C15.530951,68.977654 15.898927,68.988846 16.543728,69.005661 
	C16.853519,72.448639 16.886486,75.885986 16.838001,79.700218 
	C12.238579,77.346962 14.068799,73.422432 14.983912,69.335114 
z"/>
	<path fill="#8DBA5E" opacity="1.000000" stroke="none" d="
M23.611725,28.044937 
	C23.925879,31.938334 22.297518,34.987591 18.252653,36.871410 
	C19.706129,34.029526 21.499004,31.103327 23.611725,28.044937 
z"/>
	<path fill="#8DAF62" opacity="1.000000" stroke="none" d="
M96.890076,5.608210 
	C95.334709,5.968217 93.589188,5.986713 91.089752,5.824221 
	C88.215759,5.097147 86.095673,4.551061 83.975594,4.004976 
	C84.210770,3.837828 84.435638,3.657800 84.807755,3.316970 
	C88.876854,3.868265 92.788391,4.567482 96.890076,5.608210 
z"/>
	<path fill="#7EA967" opacity="1.000000" stroke="none" d="
M26.126335,56.422691 
	C26.754642,55.793694 27.065088,55.520741 27.404137,55.169617 
	C27.970463,54.577068 28.508188,54.062691 29.517086,53.255562 
	C28.501371,55.786465 27.014484,58.610115 25.348188,61.714455 
	C25.382010,60.256340 25.595242,58.517536 26.126335,56.422691 
z"/>
	<path fill="#89AF65" opacity="1.000000" stroke="none" d="
M15.101297,52.044498 
	C13.617905,53.339882 12.134513,54.635265 10.651121,55.930649 
	C10.391103,55.715267 10.131084,55.499889 9.871066,55.284508 
	C10.343413,53.942799 10.815761,52.601089 11.909802,51.242893 
	C13.388098,51.499104 14.244698,51.771801 15.101297,52.044498 
z"/>
	<path fill="#8DBA5E" opacity="1.000000" stroke="none" d="
M35.602097,16.961100 
	C34.175720,18.562635 32.397045,20.218666 30.265072,21.918783 
	C31.691116,20.313778 33.470463,18.664686 35.602097,16.961100 
z"/>
	<path fill="#1B678E" opacity="1.000000" stroke="none" d="
M28.351799,51.951653 
	C27.183966,51.306255 26.305325,50.463520 25.241859,49.380302 
	C26.841122,48.732754 28.625208,48.325684 31.463682,47.678036 
	C30.099268,49.648399 29.370129,50.701355 28.351799,51.951653 
z"/>
	<path fill="#83A65D" opacity="1.000000" stroke="none" d="
M112.304817,68.838501 
	C114.395508,67.507599 116.846634,66.254814 119.684937,64.995834 
	C117.603165,66.298630 115.134209,67.607620 112.304817,68.838501 
z"/>
	<path fill="#89AF65" opacity="1.000000" stroke="none" d="
M15.056731,44.025013 
	C15.046999,44.463497 15.037267,44.901985 15.011551,45.996136 
	C14.991128,47.087250 14.986691,47.522701 14.982253,47.958149 
	C14.982253,47.958149 14.963830,47.980152 14.716416,48.143036 
	C13.703001,48.865181 12.937000,49.424450 12.171000,49.983719 
	C12.889744,47.412663 13.608489,44.841610 14.660558,42.435940 
	C15.014832,43.075890 15.035782,43.550449 15.056731,44.025013 
z"/>
	<path fill="#1A78B7" opacity="1.000000" stroke="none" d="
M76.314796,92.959976 
	C76.195114,92.504776 76.466553,92.057549 76.870461,91.384720 
	C78.065163,90.772865 79.127403,90.386604 80.535210,89.967201 
	C81.067886,89.984947 81.254990,90.035835 81.720871,90.170357 
	C80.235069,91.158646 78.470490,92.063301 76.314796,92.959976 
z"/>
	<path fill="#8DAF62" opacity="1.000000" stroke="none" d="
M103.001900,9.013041 
	C101.111603,8.181776 99.221306,7.350512 97.181473,6.211990 
	C98.908669,6.361893 100.785385,6.819055 102.840088,7.866473 
	C103.012672,8.642167 103.007286,8.827603 103.001900,9.013041 
z"/>
	<path fill="#8DBA5E" opacity="1.000000" stroke="none" d="
M12.098346,50.224602 
	C12.937000,49.424450 13.703001,48.865181 14.707031,48.153885 
	C15.472008,48.601692 15.998957,49.201527 16.804455,49.928123 
	C16.602535,50.645512 16.122065,51.236141 15.371446,51.935638 
	C14.244698,51.771801 13.388098,51.499104 12.221830,51.091057 
	C11.950006,50.792301 11.987850,50.628895 12.098346,50.224602 
z"/>
	<path fill="#83A65D" opacity="1.000000" stroke="none" d="
M140.011749,50.004147 
	C140.011734,50.004147 140.026245,49.506363 140.332703,49.253395 
	C141.041458,48.995388 141.443756,48.990349 141.846069,48.985306 
	C141.524811,50.975315 141.203552,52.965328 140.483093,55.020275 
	C140.083908,55.085213 139.891846,54.889729 139.888336,54.496998 
	C139.927139,52.737560 139.969437,51.370853 140.011749,50.004147 
z"/>
	<path fill="#8DB463" opacity="1.000000" stroke="none" d="
M141.813690,48.648781 
	C141.443756,48.990349 141.041458,48.995388 140.338104,49.004459 
	C139.692001,47.553799 139.346924,46.099106 138.998108,44.264297 
	C139.923340,45.360199 140.852325,46.836224 141.813690,48.648781 
z"/>
	<path fill="#8DB463" opacity="1.000000" stroke="none" d="
M132.053284,31.647116 
	C131.435593,31.175102 130.776855,30.373129 130.084122,29.239567 
	C130.704178,29.711039 131.358215,30.514097 132.053284,31.647116 
z"/>
	<path fill="#8DBA5E" opacity="1.000000" stroke="none" d="
M38.643620,14.964029 
	C38.168865,15.568103 37.369507,16.220533 36.240505,16.911846 
	C36.713577,16.304613 37.516300,15.658500 38.643620,14.964029 
z"/>
	<path fill="#7EA967" opacity="1.000000" stroke="none" d="
M32.658310,50.965939 
	C32.197460,51.590618 31.410952,52.259361 30.293781,52.958797 
	C30.752964,52.329662 31.542809,51.669834 32.658310,50.965939 
z"/>
	<path fill="#88B75E" opacity="1.000000" stroke="none" d="
M31.280846,41.903763 
	C31.625013,41.465462 32.259232,41.093170 33.183571,40.773022 
	C32.839428,41.206703 32.205162,41.588238 31.280846,41.903763 
z"/>
	<path fill="#34688D" opacity="1.000000" stroke="none" d="
M53.813072,125.636261 
	C52.911804,125.927673 51.801235,125.946762 50.272438,125.953278 
	C51.104065,125.748444 52.353916,125.556190 53.813072,125.636261 
z"/>
	<path fill="#8DBA5E" opacity="1.000000" stroke="none" d="
M15.282433,43.851994 
	C15.035782,43.550449 15.014832,43.075890 14.980330,42.245338 
	C14.966776,41.889355 15.028652,41.444859 15.306103,41.226048 
	C15.583553,41.007236 15.997751,40.997513 15.998925,40.998756 
	C16.000099,41.000000 16.003418,41.001945 16.153112,41.168877 
	C16.509712,41.550945 16.729105,41.752491 16.960985,41.940445 
	C16.476702,42.519955 15.992417,43.099464 15.282433,43.851994 
z"/>
	<path fill="#7EA967" opacity="1.000000" stroke="none" d="
M35.652008,48.945511 
	C35.972176,49.087105 35.979675,49.266754 35.990589,49.715561 
	C35.537170,49.988884 35.080338,49.993050 34.280769,49.979698 
	C34.405140,49.635979 34.872238,49.309772 35.652008,48.945511 
z"/>
	<path fill="#89AF65" opacity="1.000000" stroke="none" d="
M16.656078,38.039017 
	C16.968437,38.087311 16.997204,38.259605 16.901722,38.882561 
	C16.568865,39.587009 16.348478,39.830116 16.063242,40.029720 
	C16.010170,39.996895 15.907598,39.925793 15.907597,39.925793 
	C16.062561,39.338200 16.217525,38.750610 16.656078,38.039017 
z"/>
	<path fill="#166899" opacity="1.000000" stroke="none" d="
M40.919998,93.695038 
	C40.532768,93.808365 39.994446,93.651009 39.223900,93.332481 
	C39.584091,93.255661 40.176495,93.340012 40.919998,93.695038 
z"/>
	<path fill="#166899" opacity="1.000000" stroke="none" d="
M45.647324,94.199768 
	C45.487724,94.513680 44.994423,94.751213 44.235374,95.068390 
	C43.969624,95.148041 43.941490,94.714836 43.952126,94.498039 
	C44.413044,94.228630 44.863331,94.176010 45.647324,94.199768 
z"/>
	<path fill="#8DB463" opacity="1.000000" stroke="none" d="
M103.345581,9.012877 
	C103.007286,8.827603 103.012672,8.642167 103.031158,8.178992 
	C103.634415,8.062498 104.224564,8.223741 104.938919,8.670318 
	C104.605164,8.974671 104.147217,8.993691 103.345581,9.012877 
z"/>
	<path fill="#166899" opacity="1.000000" stroke="none" d="
M58.181633,95.009140 
	C57.992901,95.129372 57.961369,94.688904 57.958694,94.468124 
	C58.132851,94.217400 58.309677,94.187462 58.748863,94.216324 
	C58.837608,94.521477 58.623989,94.726067 58.181633,95.009140 
z"/>
	<path fill="#7EA967" opacity="1.000000" stroke="none" d="
M33.732780,50.004913 
	C33.777649,50.185345 33.560825,50.447689 33.131523,50.854282 
	C33.103058,50.694630 33.287075,50.390728 33.732780,50.004913 
z"/>
	<path fill="#1A6392" opacity="1.000000" stroke="none" d="
M29.072273,115.210503 
	C29.187260,114.983711 29.362293,114.977959 29.797565,115.007248 
	C29.749308,115.172043 29.440815,115.301788 29.072273,115.210503 
z"/>
	<path fill="#8DBA5E" opacity="1.000000" stroke="none" d="
M24.726748,26.970188 
	C24.767849,27.147003 24.538151,27.406965 24.108856,27.834431 
	C24.091488,27.685732 24.273718,27.369535 24.726748,26.970188 
z"/>
	<path fill="#1B678E" opacity="1.000000" stroke="none" d="
M19.716175,52.964062 
	C19.960798,53.031349 19.973200,53.210861 19.828333,53.760395 
	C19.671066,54.130417 19.333729,54.330238 19.333729,54.330238 
	C19.333729,54.330238 19.122486,54.120090 19.016815,54.014156 
	C19.102079,53.630913 19.293015,53.353603 19.716175,52.964062 
z"/>
	<path fill="#1E6799" opacity="1.000000" stroke="none" d="
M98.743629,113.137482 
	C98.793900,113.366882 98.569107,113.565865 98.128418,113.851082 
	C98.114174,113.678986 98.299522,113.402229 98.743629,113.137482 
z"/>
	<path fill="#8DBA5E" opacity="1.000000" stroke="none" d="
M25.701900,25.964302 
	C25.737537,26.127436 25.512939,26.392574 25.096268,26.833700 
	C25.083349,26.695227 25.262508,26.380768 25.701900,25.964302 
z"/>
	<path fill="#8DBA5E" opacity="1.000000" stroke="none" d="
M39.731239,14.152384 
	C39.773434,14.378800 39.540104,14.569356 39.101002,14.863638 
	C39.095825,14.700607 39.282654,14.416993 39.731239,14.152384 
z"/>
	<path fill="#89AF65" opacity="1.000000" stroke="none" d="
M17.730213,36.975079 
	C17.771057,37.152500 17.542864,37.416492 17.108231,37.842331 
	C17.088253,37.690002 17.274714,37.375824 17.730213,36.975079 
z"/>
	<path fill="#83A65D" opacity="1.000000" stroke="none" d="
M121.236771,64.802719 
	C121.168678,64.533829 121.388702,64.340523 121.838661,64.089066 
	C121.858070,64.280045 121.676842,64.562500 121.236771,64.802719 
z"/>
	<path fill="#89AF65" opacity="1.000000" stroke="none" d="
M15.997751,40.997513 
	C15.997751,40.997513 15.583553,41.007236 15.376511,41.012993 
	C15.255634,40.715511 15.341799,40.412273 15.667780,40.017418 
	C15.907598,39.925793 16.010170,39.996895 16.035614,40.263840 
	C16.061060,40.530781 15.997751,40.997513 15.997751,40.997513 
z"/>
	<path fill="#17658F" opacity="1.000000" stroke="none" d="
M96.755325,83.166191 
	C97.000633,83.173111 97.001541,83.648712 96.840553,83.945557 
	C96.679565,84.242401 96.362419,84.377510 96.362419,84.377510 
	C96.362419,84.377510 96.138374,84.143463 96.026398,84.026154 
	C95.997879,83.567528 96.196411,83.317665 96.755325,83.166191 
z"/>
	<path fill="#83A65D" opacity="1.000000" stroke="none" d="
M110.192245,69.833305 
	C110.125107,69.565498 110.356842,69.363762 110.824669,69.095093 
	C110.843178,69.286751 110.653305,69.577156 110.192245,69.833305 
z"/>
	<path fill="#8CC25C" opacity="1.000000" stroke="none" d="
M83.510406,4.006678 
	C86.095673,4.551061 88.215759,5.097147 90.653671,5.823669 
	C86.898788,8.290900 83.129189,8.769307 78.310272,6.974483 
	C74.204674,5.445334 69.169640,6.411618 64.274460,6.145679 
	C70.350502,5.347740 76.697868,4.678060 83.510406,4.006678 
z"/>
	<path fill="#8CC25C" opacity="1.000000" stroke="none" d="
M59.745239,5.994304 
	C59.991364,5.995589 59.628849,6.144594 59.628849,6.144594 
	C59.628849,6.144594 59.241611,6.118864 59.124245,6.058005 
	C59.006882,5.997146 59.499119,5.993019 59.745239,5.994304 
z"/>
	<path fill="#8BC35E" opacity="1.000000" stroke="none" d="
M139.753906,50.226742 
	C139.969437,51.370853 139.927139,52.737560 139.792328,54.399246 
	C137.695694,55.399380 135.691559,56.104538 133.345749,56.908798 
	C135.168060,54.821712 137.332062,52.635525 139.753906,50.226742 
z"/>
	<path fill="#8DBA5E" opacity="1.000000" stroke="none" d="
M15.998925,40.998756 
	C15.997751,40.997513 16.061060,40.530781 16.088688,40.296661 
	C16.348478,39.830116 16.568865,39.587009 16.935675,39.142372 
	C17.203234,39.575977 17.312588,40.200436 16.964584,40.914551 
	C16.339289,41.003452 16.171352,41.002697 16.003418,41.001945 
	C16.003418,41.001945 16.000099,41.000000 15.998925,40.998756 
z"/>
	<path fill="#8DBA5E" opacity="1.000000" stroke="none" d="
M15.100204,47.778790 
	C14.986691,47.522701 14.991128,47.087250 15.002655,46.324959 
	C15.079214,46.531887 15.148684,47.065659 15.100204,47.778790 
z"/>
	<path fill="#89AF65" opacity="1.000000" stroke="none" d="
M16.153112,41.168877 
	C16.171352,41.002697 16.339289,41.003452 16.759253,41.006035 
	C17.011278,41.007866 16.987844,41.475010 16.974415,41.707726 
	C16.729105,41.752491 16.509712,41.550945 16.153112,41.168877 
z"/>
	<path fill="#1A78B7" opacity="1.000000" stroke="none" d="
M96.179581,84.604065 
	C96.362419,84.377510 96.679565,84.242401 96.841019,84.183365 
	C98.061737,84.078903 99.120995,84.033478 100.576820,83.975037 
	C100.823540,85.420624 100.673691,86.879234 100.432564,89.226410 
	C98.405319,88.672607 96.385262,88.120766 94.179039,87.262054 
	C94.660828,86.246994 95.328781,85.538811 96.179581,84.604065 
z"/>
	<path fill="#1B78B6" opacity="1.000000" stroke="none" d="
M19.169575,54.610992 
	C19.333729,54.330238 19.671066,54.130417 19.840012,54.030052 
	C22.909010,57.645309 18.542814,59.142700 17.392403,61.922489 
	C16.589621,61.544159 16.032290,60.940071 15.225130,60.156418 
	C16.318676,58.281818 17.662048,56.586781 19.169575,54.610992 
z"/>
	<path fill="#1A78B7" opacity="1.000000" stroke="none" d="
M86.289345,90.156036 
	C87.412766,89.314667 88.836296,88.646820 90.603378,87.935341 
	C90.603905,90.687416 89.063156,91.342278 86.289345,90.156036 
z"/>
	<path fill="#1B78B6" opacity="1.000000" stroke="none" d="
M13.151266,62.111473 
	C13.027089,62.074867 13.479821,61.932259 13.709812,61.872654 
	C13.777481,62.048943 13.556028,62.160618 13.151266,62.111473 
z"/>
</svg>